{
  "accessors": [
    {
      "bufferView": 2,
      "componentType": 5126,
      "count": 65532,
      "max": [
        0.22962313890457153,
        0.16334076225757599,
        1.0673664808273315
      ],
      "min": [
        -0.097257070243358612,
        -0.16491268575191498,
        -0.00047787610674276948
      ],
      "type": "VEC3"
    },
    {
      "bufferView": 2,
      "byteOffset": 786384,
      "componentType": 5126,
      "count": 65532,
      "max": [
        0.99999129772186279,
        0.99999523162841797,
        0.9999198317527771
      ],
      "min": [
        -0.99989169836044312,
        -0.99999523162841797,
        -0.99952518939971924
      ],
      "type": "VEC3"
    },
    {
      "bufferView": 3,
      "componentType": 5126,
      "count": 65532,
      "max": [
        0.99999481439590454,
        0.9999992847442627,
        0.99983525276184082,
        1
      ],
      "min": [
        -0.99975228309631348,
        -0.99999761581420898,
        -0.99753779172897339,
        -1
      ],
      "type": "VEC4"
    },
    {
      "bufferView": 3,
      "byteOffset": 1048512,
      "componentType": 5126,
      "count": 65532,
      "max": [
        0.99607843160629272,
        0.99607843160629272,
        0.99607843160629272,
        1
      ],
      "min": [
        0.023529412224888802,
        0.023529412224888802,
        0.023529412224888802,
        1
      ],
      "type": "VEC4"
    },
    {
      "bufferView": 1,
      "componentType": 5126,
      "count": 65532,
      "max": [
        0.96779465675354004,
        0.99508935213088989
      ],
      "min": [
        0.0030295457690954208,
        0.016461014747619629
      ],
      "type": "VEC2"
    },
    {
      "bufferView": 0,
      "componentType": 5125,
      "count": 336990,
      "max": [
        65531
      ],
      "min": [
        0
      ],
      "type": "SCALAR"
    },
    {
      "bufferView": 2,
      "byteOffset": 1572768,
      "componentType": 5126,
      "count": 65534,
      "max": [
        0.22962313890457153,
        0.1639331728219986,
        1.1336910724639893
      ],
      "min": [
        -0.10095499455928802,
        -0.17148639261722565,
        -9.700092050479725e-05
      ],
      "type": "VEC3"
    },
    {
      "bufferView": 2,
      "byteOffset": 2359176,
      "componentType": 5126,
      "count": 65534,
      "max": [
        0.99995601177215576,
        0.99999523162841797,
        0.99987578392028809
      ],
      "min": [
        -0.99998748302459717,
        -0.99999523162841797,
        -0.99952518939971924
      ],
      "type": "VEC3"
    },
    {
      "bufferView": 3,
      "byteOffset": 2097024,
      "componentType": 5126,
      "count": 65534,
      "max": [
        0.99999481439590454,
        0.99999666213989258,
        0.99999910593032837,
        1
      ],
      "min": [
        -0.99941051006317139,
        -0.99997764825820923,
        -0.99918943643569946,
        -1
      ],
      "type": "VEC4"
    },
    {
      "bufferView": 3,
      "byteOffset": 3145568,
      "componentType": 5126,
      "count": 65534,
      "max": [
        0.99607843160629272,
        0.99607843160629272,
        0.99607843160629272,
        1
      ],
      "min": [
        0,
        0,
        0,
        1
      ],
      "type": "VEC4"
    },
    {
      "bufferView": 1,
      "byteOffset": 524256,
      "componentType": 5126,
      "count": 65534,
      "max": [
        0.97761422395706177,
        0.99616068601608276
      ],
      "min": [
        0.0041761766187846661,
        0.0016124844551086426
      ],
      "type": "VEC2"
    },
    {
      "bufferView": 0,
      "byteOffset": 1347960,
      "componentType": 5125,
      "count": 321504,
      "max": [
        65533
      ],
      "min": [
        0
      ],
      "type": "SCALAR"
    },
    {
      "bufferView": 2,
      "byteOffset": 3145584,
      "componentType": 5126,
      "count": 65532,
      "max": [
        0.18984374403953552,
        0.1560681164264679,
        1.1846693754196167
      ],
      "min": [
        -0.1115008220076561,
        -0.15928757190704346,
        0.0050177955999970436
      ],
      "type": "VEC3"
    },
    {
      "bufferView": 2,
      "byteOffset": 3931968,
      "componentType": 5126,
      "count": 65532,
      "max": [
        0.99995625019073486,
        0.99993616342544556,
        0.99998748302459717
      ],
      "min": [
        -0.99999523162841797,
        -0.99997591972351074,
        -0.99921077489852905
      ],
      "type": "VEC3"
    },
    {
      "bufferView": 3,
      "byteOffset": 4194112,
      "componentType": 5126,
      "count": 65532,
      "max": [
        0.99999481439590454,
        0.9999992847442627,
        0.99978196620941162,
        1
      ],
      "min": [
        -0.99991351366043091,
        -0.99999278783798218,
        -0.9999091625213623,
        -1
      ],
      "type": "VEC4"
    },
    {
      "bufferView": 3,
      "byteOffset": 5242624,
      "componentType": 5126,
      "count": 65532,
      "max": [
        0.99607843160629272,
        0.99607843160629272,
        0.99607843160629272,
        1
      ],
      "min": [
        0,
        0,
        0,
        1
      ],
      "type": "VEC4"
    },
    {
      "bufferView": 1,
      "byteOffset": 1048528,
      "componentType": 5126,
      "count": 65532,
      "max": [
        0.98186135292053223,
        0.97273409366607666
      ],
      "min": [
        0.0030295457690954208,
        0.00045919418334960938
      ],
      "type": "VEC2"
    },
    {
      "bufferView": 0,
      "byteOffset": 2633976,
      "componentType": 5125,
      "count": 348465,
      "max": [
        65531
      ],
      "min": [
        0
      ],
      "type": "SCALAR"
    },
    {
      "bufferView": 2,
      "byteOffset": 4718352,
      "componentType": 5126,
      "count": 23213,
      "max": [
        0.10175731778144836,
        0.20879153907299042,
        1.1966906785964966
      ],
      "min": [
        -0.19316267967224121,
        -0.15919916331768036,
        0.17819018661975861
      ],
      "type": "VEC3"
    },
    {
      "bufferView": 2,
      "byteOffset": 4996908,
      "componentType": 5126,
      "count": 23213,
      "max": [
        0.99988913536071777,
        0.99997174739837646,
        0.99988466501235962
      ],
      "min": [
        -0.99999523162841797,
        -0.99998748302459717,
        -0.99992829561233521
      ],
      "type": "VEC3"
    },
    {
      "bufferView": 3,
      "byteOffset": 6291136,
      "componentType": 5126,
      "count": 23213,
      "max": [
        0.99995744228363037,
        0.99989414215087891,
        0.99983441829681396,
        1
      ],
      "min": [
        -0.99991351366043091,
        -0.99971097707748413,
        -0.9999091625213623,
        -1
      ],
      "type": "VEC4"
    },
    {
      "bufferView": 3,
      "byteOffset": 6662544,
      "componentType": 5126,
      "count": 23213,
      "max": [
        0.99607843160629272,
        0.99607843160629272,
        0.99607843160629272,
        1
      ],
      "min": [
        0,
        0,
        0,
        1
      ],
      "type": "VEC4"
    },
    {
      "bufferView": 1,
      "byteOffset": 1572784,
      "componentType": 5126,
      "count": 23213,
      "max": [
        0.99136358499526978,
        0.99697047472000122
      ],
      "min": [
        0.0030295457690954208,
        0.0011724233627319336
      ],
      "type": "VEC2"
    },
    {
      "bufferView": 0,
      "byteOffset": 4027836,
      "componentType": 5125,
      "count": 119268,
      "max": [
        23212
      ],
      "min": [
        0
      ],
      "type": "SCALAR"
    }
  ],
  "asset": {
    "extras": {
      "author": "jan.zachar (https://sketchfab.com/jan.zachar)",
      "license": "CC-BY-4.0 (http://creativecommons.org/licenses/by/4.0/)",
      "source": "https://sketchfab.com/models/5e16f3cd478e4c8cb32dede7446a83fb",
      "title": "Madona Sculpture"
    },
    "generator": "Sketchfab-3.19.4",
    "version": "2.0"
  },
  "bufferViews": [
    {
      "buffer": 0,
      "byteLength": 4504908,
      "byteOffset": 0,
      "name": "floatBufferViews",
      "target": 34963
    },
    {
      "buffer": 0,
      "byteLength": 1758488,
      "byteOffset": 4504908,
      "byteStride": 8,
      "name": "floatBufferViews",
      "target": 34962
    },
    {
      "buffer": 0,
      "byteLength": 5275464,
      "byteOffset": 6263396,
      "byteStride": 12,
      "name": "floatBufferViews",
      "target": 34962
    },
    {
      "buffer": 0,
      "byteLength": 7033952,
      "byteOffset": 11538860,
      "byteStride": 16,
      "name": "floatBufferViews",
      "target": 34962
    }
  ],
  "buffers": [
    {
      "byteLength": 18572812,
      "uri": "scene.bin"
    }
  ],
  "images": [
    {
      "uri": "textures/Scene_-_Root_metallicRoughness.png"
    },
    {
      "uri": "textures/Scene_-_Root_baseColor.jpg"
    }
  ],
  "materials": [
    {
      "doubleSided": true,
      "emissiveFactor": [
        0,
        0,
        0
      ],
      "name": "Scene_-_Root",
      "occlusionTexture": {
        "index": 0,
        "strength": 0.47999999999999998,
        "texCoord": 0
      },
      "pbrMetallicRoughness": {
        "baseColorFactor": [
          0.56999999999999995,
          0.56999999999999995,
          0.56999999999999995,
          1
        ],
        "baseColorTexture": {
          "index": 1,
          "texCoord": 0
        },
        "metallicFactor": 0.01,
        "metallicRoughnessTexture": {
          "index": 0,
          "texCoord": 0
        },
        "roughnessFactor": 0.34000000000000002
      }
    }
  ],
  "meshes": [
    {
      "primitives": [
        {
          "attributes": {
            "COLOR_0": 3,
            "NORMAL": 1,
            "POSITION": 0,
            "TANGENT": 2,
            "TEXCOORD_0": 4
          },
          "indices": 5,
          "material": 0,
          "mode": 4
        }
      ]
    },
    {
      "primitives": [
        {
          "attributes": {
            "COLOR_0": 9,
            "NORMAL": 7,
            "POSITION": 6,
            "TANGENT": 8,
            "TEXCOORD_0": 10
          },
          "indices": 11,
          "material": 0,
          "mode": 4
        }
      ]
    },
    {
      "primitives": [
        {
          "attributes": {
            "COLOR_0": 15,
            "NORMAL": 13,
            "POSITION": 12,
            "TANGENT": 14,
            "TEXCOORD_0": 16
          },
          "indices": 17,
          "material": 0,
          "mode": 4
        }
      ]
    },
    {
      "primitives": [
        {
          "attributes": {
            "COLOR_0": 21,
            "NORMAL": 19,
            "POSITION": 18,
            "TANGENT": 20,
            "TEXCOORD_0": 22
          },
          "indices": 23,
          "material": 0,
          "mode": 4
        }
      ]
    }
  ],
  "nodes": [
    {
      "children": [
        1
      ],
      "name": "RootNode (gltf orientation matrix)",
      "rotation": [
        -0.70710678118654746,
        -0,
        -0,
        0.70710678118654757
      ]
    },
    {
      "children": [
        2
      ],
      "name": "RootNode (model correction matrix)"
    },
    {
      "children": [
        3,
        4,
        5,
        6
      ],
      "name": "Geode"
    },
    {
      "mesh": 0,
      "name": ""
    },
    {
      "mesh": 1,
      "name": ""
    },
    {
      "mesh": 2,
      "name": ""
    },
    {
      "mesh": 3,
      "name": ""
    }
  ],
  "samplers": [
    {
      "magFilter": 9729,
      "minFilter": 9987,
      "wrapS": 10497,
      "wrapT": 10497
    },
    {
      "magFilter": 9728,
      "minFilter": 9728,
      "wrapS": 10497,
      "wrapT": 10497
    }
  ],
  "scene": 0,
  "scenes": [
    {
      "name": "OSG_Scene",
      "nodes": [
        0
      ]
    }
  ],
  "textures": [
    {
      "sampler": 0,
      "source": 0
    },
    {
      "sampler": 1,
      "source": 1
    }
  ]
}

